# xmcd
#
# Track frame offsets:
#	150
#	14643
#	29143
#	43367
#	59243
#	75467
#	94239
#	111895
#	128052
#	143405
#
# Disc length: 2117 seconds
#
# Revision: 2
# Processed by: cddbd v1.5.2PL0 Copyright (c) Steve Scherf et al.
# Submitted via: audiograbber 1.83.01
#
DISCID=9008430a
DTITLE=Bastian Baker - The Best Of Bastian Baker
DYEAR=2018
DGENRE=Country
TTITLE0=Love On Fire
TTITLE1=All Around Us
TTITLE2=79 Clinton Street
TTITLE3=Leaving Tomorrow
TTITLE4=Follow The Wind
TTITLE5=Ain't No Love
TTITLE6=Everything We Do
TTITLE7=Planned It All
TTITLE8=I'd Sing For You
TTITLE9=Hallelujah
EXTD=
EXTT0=
EXTT1=
EXTT2=
EXTT3=
EXTT4=
EXTT5=
EXTT6=
EXTT7=
EXTT8=
EXTT9=
PLAYORDER=
